<svg width="50" height="50" viewBox="0 0 50 50" fill="none" xmlns="http://www.w3.org/2000/svg">
<path opacity="0.3" d="M10.4167 10.4167H18.75V22.9167H10.4167V10.4167ZM31.25 27.0834H39.5834V39.5834H31.25V27.0834ZM10.4167 35.4167H18.75V39.5834H10.4167V35.4167ZM31.25 10.4167H39.5834V14.5834H31.25V10.4167Z" fill="#1B1138"/>
<path d="M6.25 27.0833H22.9167V6.25H6.25V27.0833ZM10.4167 10.4167H18.75V22.9167H10.4167V10.4167ZM27.0833 43.75H43.75V22.9167H27.0833V43.75ZM31.25 27.0833H39.5833V39.5833H31.25V27.0833ZM27.0833 6.25V18.75H43.75V6.25H27.0833ZM39.5833 14.5833H31.25V10.4167H39.5833V14.5833ZM6.25 43.75H22.9167V31.25H6.25V43.75ZM10.4167 35.4167H18.75V39.5833H10.4167V35.4167Z" fill="#1B1138"/>
</svg>
