<svg width="50" height="50" viewBox="0 0 50 50" fill="none" xmlns="http://www.w3.org/2000/svg">
<rect width="50" height="50" rx="25" fill="#261957"/>
<rect x="3" y="3" width="44" height="44" rx="22" fill="#9E89F1"/>
<g clip-path="url(#clip0_6_253)">
<path opacity="0.3" d="M37.0167 23.0667L34.4667 22.8833L33.9667 20.3833C33.5595 18.3041 32.4426 16.431 30.807 15.0842C29.1714 13.7374 27.1187 13.0007 25 13C21.5667 13 18.4667 14.9 16.8667 17.9333L16.0334 19.5167L14.25 19.7C12.6192 19.8809 11.1128 20.6584 10.0206 21.8829C8.9284 23.1074 8.32746 24.6925 8.33336 26.3333C8.33336 30.0167 11.3167 33 15 33H36.6667C39.4167 33 41.6667 30.75 41.6667 28C41.6667 25.4167 39.6334 23.2333 37.0167 23.0667Z" fill="#1B1138"/>
<path d="M37.25 19.7333C36.6902 16.8962 35.1627 14.3414 32.9284 12.5054C30.6942 10.6693 27.8918 9.66597 25 9.66663C20.1833 9.66663 16 12.4 13.9167 16.4C11.4671 16.6647 9.20168 17.8253 7.55581 19.6588C5.90995 21.4923 4.99971 23.8694 5 26.3333C5 31.85 9.48333 36.3333 15 36.3333H36.6667C41.2667 36.3333 45 32.6 45 28C45 23.6 41.5833 20.0333 37.25 19.7333ZM36.6667 33H15C11.3167 33 8.33333 30.0166 8.33333 26.3333C8.33333 22.9166 10.8833 20.0666 14.2667 19.7166L16.05 19.5333L16.8833 17.95C17.6498 16.4579 18.8131 15.2063 20.2452 14.333C21.6773 13.4596 23.3226 12.9983 25 13C29.3667 13 33.1333 16.1 33.9833 20.3833L34.4833 22.8833L37.0333 23.0666C38.2862 23.1509 39.4607 23.7066 40.3204 24.6219C41.18 25.5373 41.6611 26.7442 41.6667 28C41.6667 30.75 39.4167 33 36.6667 33Z" fill="#1B1138"/>
</g>
<defs>
<clipPath id="clip0_6_253">
<rect width="40" height="40" fill="white" transform="translate(5 3)"/>
</clipPath>
</defs>
</svg>
